<?xml version="1.0" encoding="UTF-8" standalone="no"?>
<!-- Created with Inkscape (http://www.inkscape.org/) -->

<svg
   xmlns:dc="http://purl.org/dc/elements/1.1/"
   xmlns:cc="http://creativecommons.org/ns#"
   xmlns:rdf="http://www.w3.org/1999/02/22-rdf-syntax-ns#"
   xmlns:svg="http://www.w3.org/2000/svg"
   xmlns="http://www.w3.org/2000/svg"
   xmlns:sodipodi="http://sodipodi.sourceforge.net/DTD/sodipodi-0.dtd"
   xmlns:inkscape="http://www.inkscape.org/namespaces/inkscape"
   width="210mm"
   height="297mm"
   viewBox="0 0 210 297"
   version="1.1"
   id="svg8"
   inkscape:version="0.92.4 (5da689c313, 2019-01-14)"
   sodipodi:docname="drawing.svg">
  <defs
     id="defs2" />
  <sodipodi:namedview
     id="base"
     pagecolor="#ffffff"
     bordercolor="#666666"
     borderopacity="1.0"
     inkscape:pageopacity="0.0"
     inkscape:pageshadow="2"
     inkscape:zoom="1.4"
     inkscape:cx="494.15149"
     inkscape:cy="515.01265"
     inkscape:document-units="mm"
     inkscape:current-layer="layer1"
     showgrid="false"
     inkscape:snap-global="false"
     inkscape:window-width="1920"
     inkscape:window-height="1017"
     inkscape:window-x="-8"
     inkscape:window-y="-8"
     inkscape:window-maximized="1" />
  <metadata
     id="metadata5">
    <rdf:RDF>
      <cc:Work
         rdf:about="">
        <dc:format>image/svg+xml</dc:format>
        <dc:type
           rdf:resource="http://purl.org/dc/dcmitype/StillImage" />
        <dc:title></dc:title>
      </cc:Work>
    </rdf:RDF>
  </metadata>
  <g
     inkscape:label="Layer 1"
     inkscape:groupmode="layer"
     id="layer1">
    <path
       style="fill:#000000;fill-opacity:1;stroke:none;stroke-width:1;stroke-miterlimit:4;stroke-dasharray:none;stroke-opacity:1"
       id="path864"
       d="m 34.794112,93.423213 c -1.832287,1.69868 -3.245319,3.79891 -4.586674,5.89016 -1.641867,2.559747 -1.922925,3.150907 -3.448227,5.854507 -2.434164,4.7042 -4.409975,9.70113 -5.11623,14.98383 -0.519181,3.88342 -0.293748,4.80458 -0.104767,8.73145 0.278376,1.51056 0.438015,3.0479 0.835131,4.53167 1.340998,5.01044 3.863875,9.32096 7.588396,12.94593 3.709521,3.61038 5.628822,4.39256 10.111671,7.08682 2.186305,0.93754 4.37261,1.87508 6.558915,2.81262 0,0 -2.352966,1.56957 -2.352966,1.56957 v 0 c -2.222958,-0.929 -4.445916,-1.85801 -6.668873,-2.78701 -4.573231,-2.68235 -6.521816,-3.44993 -10.31829,-7.07258 -3.80877,-3.63438 -6.386848,-7.96388 -7.785544,-13.02674 -0.412036,-1.49145 -0.586042,-3.03863 -0.879065,-4.55795 -0.224549,-3.94575 -0.459671,-4.87437 0.02833,-8.78227 0.660503,-5.28929 2.586445,-10.30491 4.971454,-15.0352 2.221699,-4.03944 4.427096,-8.189247 7.504491,-11.656337 0,0 3.662249,-1.48847 3.662249,-1.48847 z"
       inkscape:connector-curvature="0" />
    <path
       style="fill:#000000;fill-opacity:1;stroke:none;stroke-width:1;stroke-miterlimit:4;stroke-dasharray:none;stroke-opacity:1"
       id="path866"
       d="m 19.685464,103.62502 c 3.565057,4.10136 7.014139,8.30155 10.459826,12.50315 3.791701,4.8464 7.923011,9.87506 10.160645,15.68479 1.746809,4.53535 1.522937,5.48842 2.058189,10.36088 -0.106122,1.94647 -0.05908,3.90736 -0.318365,5.83939 -1.229786,9.16369 -5.493917,17.73425 -10.590456,25.3291 -1.385861,2.0652 -2.942693,4.0104 -4.414038,6.0156 -1.538177,1.81412 -3.076353,3.62824 -4.61453,5.44236 0,0 -2.608871,1.10496 -2.608871,1.10496 v 0 c 1.55593,-1.8144 3.11186,-3.6288 4.66779,-5.4432 1.472727,-1.99713 3.033279,-3.9324 4.418185,-5.99141 5.052509,-7.51181 9.236085,-16.01138 10.413767,-25.08525 0.247732,-1.90873 0.192378,-3.84466 0.288565,-5.76699 -0.560287,-4.82442 -0.342472,-5.73236 -2.093852,-10.21911 -2.263103,-5.79771 -6.355429,-10.77375 -10.220325,-15.55747 -3.536058,-4.15303 -7.029389,-8.37424 -10.967767,-12.15703 0,0 3.361237,-2.05977 3.361237,-2.05977 z"
       inkscape:connector-curvature="0" />
    <g
       id="g930"
       transform="matrix(0.93800718,0,0,0.99343849,7.5236359,1.0314638)"
       inkscape:export-xdpi="15.37907"
       inkscape:export-ydpi="15.37907">
      <path
         inkscape:transform-center-x="-1.8334564"
         inkscape:connector-curvature="0"
         id="path878"
         d="m 116.83753,172.45038 c -5.34411,-2.98959 -9.166,-8.16781 -10.67165,-14.4588 -1.37649,-5.75141 -0.9844,-14.06515 0.99931,-21.18863 0.27294,-0.97998 0.57376,-1.79793 0.66861,-1.81766 0.20826,-0.0434 2.85343,3.33297 5.23938,6.6876 5.9467,8.361 7.90135,14.69326 7.38982,23.9401 -0.13807,2.49181 -0.80715,7.10895 -1.12728,7.77644 -0.11344,0.23597 -0.98003,-0.0898 -2.49819,-0.93905 z"
         style="fill:#000000;fill-opacity:1;stroke:#ffffff;stroke-width:3;stroke-miterlimit:4;stroke-dasharray:none;stroke-opacity:1"
         inkscape:transform-center-y="-11.194479" />
      <path
         inkscape:transform-center-y="-11.194479"
         style="fill:#000000;fill-opacity:1;stroke:#ffffff;stroke-width:3;stroke-miterlimit:4;stroke-dasharray:none;stroke-opacity:1"
         d="m 125.88849,172.45038 c 5.34411,-2.98959 9.166,-8.16781 10.67165,-14.4588 1.37649,-5.75141 0.9844,-14.06515 -0.99931,-21.18863 -0.27294,-0.97998 -0.57376,-1.79793 -0.66861,-1.81766 -0.20826,-0.0434 -2.85343,3.33297 -5.23938,6.6876 -5.9467,8.361 -7.90135,14.69326 -7.38982,23.9401 0.13807,2.49181 0.80715,7.10895 1.12728,7.77644 0.11344,0.23597 0.98003,-0.0898 2.49819,-0.93905 z"
         id="path916"
         inkscape:connector-curvature="0"
         inkscape:transform-center-x="1.8334562" />
      <path
         inkscape:transform-center-y="-15.848848"
         style="fill:#000000;fill-opacity:1;stroke:#ffffff;stroke-width:3;stroke-miterlimit:4;stroke-dasharray:none;stroke-opacity:1"
         d="m 121.70461,184.34808 c -6.15798,-6.28346 -9.67593,-15.31434 -9.82291,-25.21635 -0.13441,-9.05275 2.80423,-21.32664 7.48945,-31.28163 0.6446,-1.36948 1.27869,-2.48764 1.40918,-2.48477 0.28656,0.006 2.78187,5.94687 4.94249,11.76671 5.38519,14.50524 6.11077,24.62194 2.74316,38.2477 -0.90781,3.67173 -3.13343,10.33436 -3.74906,11.2214 -0.21798,0.31348 -1.26289,-0.46802 -3.01225,-2.25307 z"
         id="path876"
         inkscape:connector-curvature="0"
         inkscape:transform-center-x="-5.0641314" />
      <path
         inkscape:transform-center-y="-11.49259"
         style="fill:#000000;fill-opacity:1;stroke:#ffffff;stroke-width:3;stroke-miterlimit:4;stroke-dasharray:none;stroke-opacity:1"
         d="m 114.43732,182.9918 c -5.83482,-1.85794 -10.61693,-6.16518 -13.35278,-12.0268 -2.501186,-5.35887 -3.783171,-13.58252 -3.267316,-20.95905 0.07101,-1.01479 0.201822,-1.87642 0.290782,-1.91476 0.195368,-0.0842 3.463494,2.6935 6.473324,5.50191 7.50166,6.99962 10.68568,12.81169 12.03766,21.97346 0.3641,2.46892 0.63391,7.12649 0.45404,7.84458 -0.0639,0.25392 -0.97813,0.10845 -2.63571,-0.41934 z"
         id="path872"
         inkscape:connector-curvature="0" />
      <path
         inkscape:transform-center-x="-1.4396252e-06"
         inkscape:connector-curvature="0"
         id="path918"
         d="m 128.2887,182.9918 c 5.83482,-1.85794 10.61693,-6.16518 13.35278,-12.0268 2.50119,-5.35887 3.78317,-13.58252 3.26732,-20.95905 -0.071,-1.01479 -0.20183,-1.87642 -0.29079,-1.91476 -0.19536,-0.0842 -3.46349,2.6935 -6.47332,5.50191 -7.50166,6.99962 -10.68568,12.81169 -12.03766,21.97346 -0.3641,2.46892 -0.63391,7.12649 -0.45404,7.84458 0.0639,0.25392 0.97813,0.10845 2.63571,-0.41934 z"
         style="fill:#000000;fill-opacity:1;stroke:#ffffff;stroke-width:3;stroke-miterlimit:4;stroke-dasharray:none;stroke-opacity:1"
         inkscape:transform-center-y="-11.49259" />
      <path
         inkscape:transform-center-x="-3.7628495"
         inkscape:connector-curvature="0"
         id="path874"
         d="m 120.93144,187.67558 c -4.503,-3.26344 -6.99381,-8.00866 -6.95491,-13.24979 0.0356,-4.79158 2.41368,-11.32022 6.06094,-16.63907 0.50178,-0.73171 0.99195,-1.33023 1.08933,-1.33006 0.21382,0.001 1.98757,3.11996 3.51327,6.17905 3.80265,7.62442 4.19247,12.97324 1.47375,20.22204 -0.73285,1.95333 -2.49444,5.50376 -2.96735,5.97973 -0.16745,0.16823 -0.9358,-0.23481 -2.21503,-1.1619 z"
         style="fill:#000000;fill-opacity:1;stroke:#ffffff;stroke-width:3;stroke-miterlimit:4;stroke-dasharray:none;stroke-opacity:1"
         inkscape:transform-center-y="-8.3287012" />
      <path
         style="fill:#000000;fill-opacity:1;stroke:#ffffff;stroke-width:3;stroke-miterlimit:4;stroke-dasharray:none;stroke-opacity:1"
         d="m 123.36498,188.9666 c 7.24144,0.45217 14.24753,-1.43438 19.56261,-5.26766 4.8592,-3.5045 9.45663,-9.7404 11.71715,-15.89298 0.31094,-0.84642 0.49607,-1.58876 0.41131,-1.6497 -0.18617,-0.13378 -4.91033,1.02098 -9.35742,2.28736 -11.08379,3.15631 -16.88115,6.79901 -21.91774,13.77186 -1.35701,1.87912 -3.45045,5.56401 -3.52548,6.20648 -0.0267,0.22719 1.05241,0.41618 3.10957,0.54464 z"
         id="path920"
         inkscape:connector-curvature="0" />
      <path
         inkscape:connector-curvature="0"
         id="path868"
         d="m 119.36104,188.9666 c -7.24144,0.45217 -14.24753,-1.43438 -19.562607,-5.26766 -4.859207,-3.5045 -9.456637,-9.7404 -11.717155,-15.89298 -0.310938,-0.84642 -0.496064,-1.58876 -0.411304,-1.6497 0.186165,-0.13378 4.910328,1.02098 9.357413,2.28736 11.083793,3.15631 16.881153,6.79901 21.917743,13.77186 1.35701,1.87912 3.45045,5.56401 3.52548,6.20648 0.0267,0.22719 -1.05241,0.41618 -3.10957,0.54464 z"
         style="fill:#000000;fill-opacity:1;stroke:#ffffff;stroke-width:3;stroke-miterlimit:4;stroke-dasharray:none;stroke-opacity:1" />
    </g>
  </g>
</svg>
